<svg xmlns="http://www.w3.org/2000/svg" version="1.1" viewBox="-5.0 -10.0 110.0 135.0">
 <path d="m82.297 27.215c-0.30469 0.80078-1.168 1.957-1.6602 2.918-0.48047 0.88672-0.64062 1.7695-0.90234 2.7695-0.57422 2.2617-1.0156 4.4922-2.0898 6.5-0.59375 1.2773-1.2344 2.8008-2.418 3.3398-0.90234 0.33594-1.6445-0.51172-2.2031-1.1211-0.83984-0.91016-1.4141-1.543-2.375-2.6133-0.83984-1.0039-1.9102-1.8984-2.4414-3.0703-0.64062-1.4453-2.6562-6.0469-3.9844-9.0664-0.38672-0.87109-0.69922-1.6133-0.92188-2.0898-0.36719-0.78125-0.87109-0.57422-0.91797 0.16016-0.023437 0.97266 0.67578 2.3086 1.0039 3.4453 0.5 1.4492 1.0195 2.9492 1.5195 4.3906 0.42969 1.2656 0.59766 1.5977 1.2031 2.6914 0.82031 1.5078 1.6914 3.1133 2.5117 4.6211 2.3984 4.1758 4.3516 9.4844 6.6953 14.629 0.50391 1.1367 0.61719 1.5273 1.332 2.6797 1.7109 2.6289 3.2969 5.5742 4.7031 8.3125 1.7266 2.6406 4.9219 6.6445 6.5078 8.8711 0.22266 0.29688 0.42969 0.66797 0.31641 1-0.10547 0.33594-0.36328 0.64453-0.57031 0.95703-0.36719 0.52344-0.52344 1.1992-0.51953 1.8477 0.007812 0.85156 0.078124 2.0547 0.12109 2.8477 0.011719 0.73047 0.16797 1.4414 0.80078 1.8828 1.418 1.1797 5.1016 4.2227 7.2188 5.9727 0.53125 0.4375 0.98828 0.82422 1.4336 1.332 0.50391 0.57422 0.98438 1.1914 0.8125 1.3047-23.184 0.12109-40.332 0.007813-61.684 0.046876-3.2188-0.035157-23.152 0.03125-30.809-0.003907-0.17578-0.007812-0.29688-0.039062-0.29297-0.26172 0.054688-15.414-0.046875-41.508-0.007812-61.746 0.011718-0.50391-0.15234-0.80469-0.30859-1.3555-0.29688-0.97656-0.76953-2.3203-1.1016-3.3711-0.35547-1.2969-1.1172-2.5547-0.57812-3.8555 0.4375-1.6211 1.5273-3.3242 1.4258-5-0.097657-1.1875-1.0078-2.6211-0.61328-3.7891 0.375-1.0234 1.1914-2.0078 1.7578-2.9297 0.70312-1.0586 1.0156-1.1445 2.4609-1.1328 1.7461-0.027344 4.7852-0.070313 6.6602-0.097656 1.3828 0 1.957-0.10156 3.1602 0.33203 0.28516 0.09375 0.54688 0.17188 0.84766 0.26953 3.918 1.2227 7.7383 2.5039 11.57 3.8477 1.6719 0.49219 3.3789 1.375 5.043 1.7539 0.59375 0.082031 1.0352-0.054688 1.6992-0.35547 1.5078-0.72656 3.3438-1.5039 4.7734-2.3594 1.043-0.66406 2.1133-1.7734 3.1445-2.2852 0.47656-0.22656 0.98828-0.30078 1.5234-0.36328 1.1875-0.13281 3.1289-0.34375 4.2031-0.45703 1.4727-0.21484 2.875 0.22656 4.3359 0.50391 1.1719 0.25 2.4258 0.36719 2.9336 1.5469 0.36719 0.66797 0.69531 1.4609 1.0469 2.1289 0.23438 0.40625 0.35156 0.66406 0.66797 0.70312 0.53516 0.011718 1.0742-1.4883 1.7734-1.875 0.39062-0.23047 0.85156-0.13281 1.2734-0.007813 1.0352 0.32422 2.7969 0.95312 3.8086 1.2852 1.8633 0.66406 3.9062 0.58984 5.8711 0.80469 1.0312 0.082031 1.6094-0.019531 2.4766-0.49609 0.69141-0.37109 1.4492-0.86719 2.1289-1.207 0.46484-0.22656 0.6875-0.23047 0.82813 0.019531 0.9375 2.4805 3.9297 11.809 4.7852 14.266 0.10156 0.32812 0.14844 0.56641 0.035156 0.90625z"/>
<text x="0.0" y="117.5" font-size="5.0" font-weight="bold" font-family="Arbeit Regular, Helvetica, Arial-Unicode, Arial, Sans-serif" fill="#000000">Created by Alexander Skowalsky</text><text x="0.0" y="122.5" font-size="5.0" font-weight="bold" font-family="Arbeit Regular, Helvetica, Arial-Unicode, Arial, Sans-serif" fill="#000000">from Noun Project</text></svg>